<svg width="58" height="58" viewBox="0 0 58 58" fill="none" xmlns="http://www.w3.org/2000/svg">
<rect width="58" height="58" rx="29" fill="#6FD44F"/>
<path d="M40.4097 37.8761C39.5264 38.9245 37.4344 41.3822 35.4637 40.9494C33.0635 40.4225 27.6484 37.4661 24.0909 33.9091C20.5334 30.3522 17.576 24.9355 17.0507 22.5363C16.6174 20.565 19.0756 18.4746 20.124 17.5897C21.6149 16.3338 22.6693 17.326 23.2558 18.3214C23.8424 19.3167 25.1513 21.2702 25.6522 22.1226C26.1532 22.975 25.2802 25.0107 24.6606 26.1069C24.2816 26.78 26.2415 29.3264 27.4583 30.5439C28.6752 31.7613 31.2222 33.7218 31.8953 33.3416C32.9914 32.722 35.0272 31.8485 35.8796 32.35C36.732 32.8515 38.6859 34.161 39.6808 34.7464C40.6756 35.3318 41.6656 36.3852 40.4097 37.8761Z" fill="white"/>
</svg>
