<svg width="58" height="58" viewBox="0 0 58 58" fill="none" xmlns="http://www.w3.org/2000/svg">
<rect width="58" height="58" rx="29" fill="#6FD44F"/>
<path fill-rule="evenodd" clip-rule="evenodd" d="M17.9396 20.312L28.0381 27.9973C28.6122 28.4342 29.3876 28.4342 29.9616 27.9973L40.0604 20.312C39.7558 20.1145 39.397 20 39.0137 20H18.9863C18.603 20 18.2442 20.1145 17.9396 20.312ZM40.776 21.1138C40.9189 21.3977 41 21.7196 41 22.0599V35.9401C41 37.0715 40.1049 38 39.0137 38H18.9863C17.8951 38 17 37.0721 17 35.9401V22.0599C17 21.7196 17.0809 21.3974 17.2238 21.1135L27.4193 28.8728C28.3654 29.593 29.634 29.593 30.5802 28.8728L40.776 21.1138Z" fill="white"/>
</svg>
