<svg width="58" height="58" viewBox="0 0 58 58" fill="none" xmlns="http://www.w3.org/2000/svg">
<rect width="58" height="58" rx="29" fill="#6FD44F"/>
<path d="M27.0629 13.1242C24.0765 13.703 21.4476 15.428 19.8218 17.8823C18.6803 19.5956 18.2075 21.1122 18.0692 23.4044L18 24.6547H23.7652L23.8229 23.5781C23.9266 21.8068 24.5954 20.4986 25.9329 19.4799C26.9476 18.7042 27.674 18.4727 29.1038 18.4727C30.5105 18.4727 31.2369 18.7042 32.24 19.4567C34.8574 21.4132 35.1342 25.1757 32.8396 27.4795C31.6866 28.6371 30.3836 29.0655 27.4549 29.2391L26.1059 29.3202V36H32.7935V34.5297L33.5199 34.2172C35.3187 33.4299 37.2788 31.705 38.3512 29.98C38.9623 28.996 39.5042 27.711 39.7925 26.5533C40.0692 25.4535 40.0692 22.6982 39.7925 21.5984C38.7662 17.4771 35.7222 14.3629 31.652 13.2978C30.5105 12.9853 28.2159 12.9042 27.0629 13.1242Z" fill="white"/>
<path d="M27 45H33V40H27V45Z" fill="white"/>
</svg>
