<svg width="11" height="5" viewBox="0 0 11 5" fill="none" xmlns="http://www.w3.org/2000/svg">
<path d="M0.185193 0.434719C0.185193 0.324222 0.225903 0.213724 0.313137 0.12649C0.481791 -0.0421638 0.760942 -0.0421638 0.929596 0.12649L4.7214 3.91829C5.00055 4.19744 5.45417 4.19744 5.73332 3.91829L9.52512 0.12649C9.69377 -0.0421634 9.97292 -0.0421634 10.1416 0.12649C10.3102 0.295144 10.3102 0.574295 10.1416 0.742948L6.34978 4.53475C6.05318 4.83135 5.6519 5 5.22736 5C4.80281 5 4.40153 4.83716 4.10494 4.53475L0.313137 0.742948C0.231718 0.655713 0.185193 0.545216 0.185193 0.434719Z" fill="black"/>
</svg>
