<svg width="44" height="44" viewBox="0 0 44 44" fill="none" xmlns="http://www.w3.org/2000/svg">
<circle cx="22" cy="22" r="21" fill="#002C08" stroke="#DFDFDF" stroke-width="2"/>
<path fill-rule="evenodd" clip-rule="evenodd" d="M24.8861 31.5427C25.7497 30.636 25.5669 29.6118 24.8761 29.6003C25.1231 30.353 24.5557 30.8396 24.3399 31.0899C23.7959 30.6272 23.2324 30.1128 22.6492 29.5832C25.4946 27.2551 28.6088 25.19 32.6774 25.125C28.2967 23.5688 24.7999 26.2139 21.8393 28.8529C18.8784 26.2139 15.3818 23.5688 11 25.125C15.0695 25.19 18.1833 27.2548 21.0294 29.5832C20.445 30.1128 19.8821 30.6272 19.3373 31.0899C19.1231 30.8396 18.5555 30.353 18.8011 29.6003C18.1108 29.6118 17.9278 30.636 18.7922 31.5427C18.4465 31.8275 17.8866 32.3092 17.441 32.4247C17.0984 32.5133 16.8233 32.3372 16.7613 31.97C16.6306 31.1945 15.416 31.3103 15.5645 32.4057C15.7008 33.4046 16.9271 33.8403 17.9778 33.3776C18.3947 33.1936 18.9674 32.6715 19.4374 32.2921C19.6524 32.5408 20.2198 33.0272 19.9733 33.7809C20.6642 33.7683 20.8466 32.7452 19.9831 31.8371C20.5966 31.3194 21.2124 30.7854 21.8393 30.2572C22.4656 30.7851 23.0816 31.3194 23.6957 31.8371C22.8316 32.7452 23.0141 33.7683 23.7052 33.7809C23.4588 33.0272 24.0261 32.5413 24.2406 32.2921C24.7114 32.6715 25.2835 33.1936 25.701 33.3776C26.7517 33.8403 27.9771 33.4046 28.1134 32.4057C28.2619 31.3103 27.0479 31.1945 26.9161 31.97C26.8541 32.3372 26.5799 32.513 26.2367 32.4247C25.7911 32.3092 25.2315 31.8275 24.8861 31.5427ZM19.5128 17.0213C18.8528 18.7469 18.8164 20.6902 19.7653 22.8274C19.614 20.608 20.1063 18.7747 21.0216 17.3932L21.2149 19.2963H20.9893L21.2149 21.5243H20.9893L21.2149 23.7518H20.9893L21.2146 25.9765L20.5771 26.605H21.8393H23.1017L22.4637 25.9765L22.6895 23.7518H22.4637L22.6895 21.5243H22.4637L22.6895 19.2963H22.4637L22.6572 17.3932C23.5722 18.7747 24.0648 20.6093 23.9135 22.8274C24.8616 20.6902 24.826 18.7478 24.166 17.0213C25.2866 18.3282 26.1535 19.8564 26.5432 21.7667C26.9475 19.3436 26.2561 17.366 24.9887 15.8315C26.2158 16.7068 27.2702 17.8163 28.0075 19.3167C27.8356 17.021 26.6614 15.5324 25.0438 14.4659C26.4416 14.9179 27.5831 15.6744 28.6074 17.0174C27.9224 14.6354 26.43 13.6813 24.5804 13.1449C25.8417 13.0538 27.0335 13.1944 28.213 13.9212C26.9328 12.2137 25.2143 11.9301 23.4716 12.1199C24.2044 11.7507 25.0291 11.5661 25.9149 11.6968C24.9164 10.9683 23.5845 10.8963 22.4445 11.5103L21.8393 10L21.2332 11.5094C20.0929 10.8963 18.7621 10.9681 17.7637 11.6968C18.6489 11.5664 19.473 11.7507 20.2061 12.1199C18.464 11.9301 16.746 12.214 15.465 13.9212C16.6453 13.1944 17.8363 13.0538 19.0981 13.1449C17.2491 13.6813 15.7562 14.6354 15.0717 17.0174C16.0952 15.6747 17.2372 14.9179 18.6353 14.4659C17.0166 15.5322 15.8429 17.021 15.6708 19.3167C16.4078 17.8163 17.463 16.7068 18.6895 15.8315C17.4221 17.366 16.7307 19.3436 17.1351 21.7667C17.525 19.8564 18.3919 18.3282 19.5128 17.0213Z" fill="#00FF33"/>
</svg>
