<svg width="50" height="50" viewBox="0 0 50 50" fill="none" xmlns="http://www.w3.org/2000/svg">
<path d="M24.9493 34.8532C18.7423 34.8532 14.4302 33.5988 11.768 31.0184C9.64665 28.9649 8.59751 26.0676 8.65297 22.4024V1.82666H11.0424V22.4203C10.9962 25.5051 11.7911 27.7863 13.4688 29.4068C15.6781 31.5497 19.4864 32.5764 25.0972 32.563L25.1065 34.8532C25.0556 34.8532 25.0048 34.8532 24.9539 34.8532" fill="#6FD44F"/>
<path d="M25.2348 34.8532C31.4418 34.8532 35.7539 33.5988 38.4161 31.0184C40.5374 28.9649 41.5866 26.0676 41.5311 22.4024V1.82666H39.1417V22.4203C39.1833 25.5051 38.393 27.7863 36.7152 29.4068C34.506 31.5497 30.6977 32.5764 25.0869 32.563L25.0776 34.8532C25.1285 34.8532 25.1793 34.8532 25.2302 34.8532" fill="#6FD44F"/>
<path d="M38.1669 40.2497V37.6962L42.4929 36.589C42.7794 38.589 41.3328 39.8078 38.1669 40.2542M29.991 42.5845H20.2021V39.9194H29.991V42.5845ZM7.69558 36.589L12.0216 37.6962V40.2497C8.85103 39.8033 7.40904 38.5846 7.69558 36.5846M45.8945 7.79013L45.9684 3.91515C45.9915 2.81695 45.0672 1.91517 43.921 1.91517H43.1214L42.7933 25.0088C42.7424 28.6962 40.7042 32.1292 37.3535 33.9507C34.7191 35.3837 30.8229 36.5042 25.0919 36.5042C19.3609 36.5042 15.7051 35.4507 13.0753 34.0846C9.60437 32.2766 7.44601 28.7945 7.39055 25.0088L7.0624 1.91963H6.26284C5.11664 1.91963 4.19229 2.82141 4.21539 3.91962L4.37253 11.8437H3.7486C2.54231 11.8437 1.5625 12.7812 1.5625 13.9374V19.799C1.5625 20.9552 2.54231 21.8927 3.7486 21.8927H4.57127L5.00109 43.7452C5.00109 43.7452 10.9123 45.9952 25.0919 45.9952C39.2715 45.9952 45.1827 43.7452 45.1827 43.7452L45.7096 17.107H47.013C47.9003 17.107 48.6213 16.4151 48.6213 15.5669V9.61154C48.6213 9.24994 48.4041 8.91958 48.0621 8.76333L45.8945 7.79013ZM25.1012 4.87943H37.3026V1.75445C37.3026 0.785709 36.4846 0 35.4724 0H14.7207C13.7131 0 12.8905 0.785709 12.8905 1.75445V4.87943H25.1012Z" fill="#113108"/>
<path d="M24.8156 23.6074L24.1131 24.2815L25.0652 25.2012H23.1194L22.2135 26.0449H25.9479L26.6181 26.652L21.1875 26.6163L25.2454 30.5047L25.9525 29.8306L25.0929 29.0136H26.8538L27.8059 28.1654H24.2009L23.577 27.5895L29.0075 27.6297L24.8156 23.6074Z" fill="#113108"/>
<path d="M6.75675 50H13.0655C13.4121 50 13.6894 49.7322 13.6894 49.4018V46.9108C11.1752 46.8661 8.721 46.4197 6.13281 45.9956V49.4018C6.13281 49.7322 6.41012 50 6.75675 50Z" fill="#113108"/>
<path d="M37.1266 50H43.4307C43.7773 50 44.0546 49.7322 44.0546 49.4018V45.9956C41.4664 46.4242 39.0123 46.8661 36.498 46.9108V49.4018C36.498 49.7322 36.78 50 37.122 50" fill="#113108"/>
</svg>
