<svg width="46" height="70" viewBox="0 0 46 70" fill="none" xmlns="http://www.w3.org/2000/svg">
<g clip-path="url(#clip0_4639_15346)">
<path d="M33.6484 20.0896C33.6484 14.3557 28.8824 9.70996 23 9.70996C17.1176 9.70996 12.3516 14.3557 12.3516 20.0896C12.3516 25.8236 17.1176 30.4693 23 30.4693C28.8824 30.4693 33.6484 25.8236 33.6484 20.0896Z" fill="#3CD732"/>
<path d="M27.4082 54.3608C25.9412 56.7116 24.4527 59.2647 23 62.1107C21.5473 59.2717 20.0588 56.7116 18.5918 54.3608C8.00062 55.0654 0 58.2672 0 62.1107C0 66.4705 10.2978 70.0071 23 70.0071C35.7022 70.0071 46 66.4705 46 62.1107C46 58.2672 37.9994 55.0723 27.4082 54.3608Z" fill="#3CD732"/>
<path d="M9.83283 20.0897C9.83283 13.0025 15.7295 7.25461 23.0002 7.25461C30.2709 7.25461 36.1676 13.0025 36.1676 20.0897C36.1676 27.1769 30.2709 32.9248 23.0002 32.9248C15.7295 32.9248 9.83283 27.1769 9.83283 20.0897ZM27.4084 54.3607C36.0889 40.4793 44.3686 33.9083 44.3686 20.2013C44.3686 9.77977 36.9977 0.181365 23.0002 0C9.00271 0.181365 1.63184 9.77977 1.63184 20.2013C1.63184 33.9083 9.91155 40.4793 18.592 54.3607C20.0662 56.7115 21.5475 59.2646 23.0002 62.1106C24.4529 59.2716 25.9414 56.7115 27.4084 54.3607Z" fill="#003200"/>
</g>
<defs>
<clipPath id="clip0_4639_15346">
<rect width="46" height="70" fill="white"/>
</clipPath>
</defs>
</svg>
