<svg width="22" height="11" viewBox="0 0 22 11" fill="none" xmlns="http://www.w3.org/2000/svg">
<path d="M0.917261 0.954399C0.917261 0.733405 0.99868 0.512411 1.17315 0.337941C1.51046 0.000634104 2.06876 0.000634104 2.40607 0.337941L9.98967 7.92154C10.548 8.47984 11.4552 8.47984 12.0135 7.92154L19.5971 0.337941C19.9344 0.000634104 20.4927 0.000634104 20.83 0.337941C21.1673 0.675249 21.1673 1.23355 20.83 1.57086L13.2464 9.15446C12.6532 9.74765 11.8507 10.085 11.0016 10.085C10.1525 10.085 9.34994 9.75928 8.75675 9.15446L1.17315 1.57086C1.01031 1.39639 0.917261 1.17539 0.917261 0.954399Z" fill="#0F9F06"/>
</svg>
